#!OML:ASF G:\ViconDB\ViconDB\414\test\team2\shane.ASF
:FULLY-SPECIFIED
:DEGREES
177
root 10.5246 15.0785 -4.46909 348.141 -46.2964 8.46602
lowerback 14.7282 -1.28268 4.04443
upperback 6.81471 -1.29104 2.6896
thorax -1.06537 -0.685837 0.730939
lowerneck -28.3432 -0.986602 -2.24305
upperneck 8.89291 -0.496255 -0.446096
head 7.19432 -0.400841 0.129614
rclavicle -2.90226e-014 1.59028e-014
rhumerus -27.3087 -5.65242 -61.0356
rradius 25.2087
rwrist 33.7326
rhand -34.1063 -20.1573
rfingers 7.12502
rthumb -7.28222 -50.012
lclavicle -2.90226e-014 1.59028e-014
lhumerus -35.1878 -37.3525 103.002
lradius 43.5146
lwrist -13.8933
lhand -46.8852 5.88369
lfingers 7.12502
lthumb -19.5969 34.916
rfemur -37.7764 -42.0916 10.8329
rtibia 62.9466
rfoot -20.8783 -24.7433
rtoes -4.47065
lfemur -4.04627 20.4975 0.512049
ltibia 55.9241
lfoot -26.6535 6.79043
ltoes -19.5471
178
root 10.663 15.038 -4.39405 349.408 -45.3205 7.19142
lowerback 14.8027 -1.07802 4.18798
upperback 6.83899 -0.998038 2.45198
thorax -1.0806 -0.530359 0.357526
lowerneck -28.0523 -1.0484 -2.18456
upperneck 9.07457 -0.614453 -0.344012
head 7.2142 -0.442056 0.139841
rclavicle 5.96354e-015 1.74931e-014
rhumerus -27.0707 -3.66991 -61.2251
rradius 25.9237
rwrist 32.1923
rhand -34.2608 -20.3804
rfingers 7.12502
rthumb -7.43135 -50.2299
lclavicle 5.96354e-015 1.74931e-014
lhumerus -35.2519 -36.8804 102.823
lradius 43.3739
lwrist -14.5067
lhand -46.769 5.94587
lfingers 7.12502
lthumb -19.4852 34.9895
rfemur -38.1665 -42.1925 11.0183
rtibia 62.9972
rfoot -20.9183 -23.7797
rtoes -5.6841
lfemur -3.33673 19.5304 0.572174
ltibia 53.9486
lfoot -30.0355 6.95099
ltoes -20.3301
179
root 10.7975 15.0041 -4.31622 350.631 -44.4382 6.08582
lowerback 14.6746 -0.846008 4.25144
upperback 6.91504 -0.695155 2.25657
thorax -0.928138 -0.369867 0.0680052
lowerneck -27.8659 -0.914668 -2.05971
upperneck 9.19961 -0.472072 -0.391013
head 7.22757 -0.372588 0.124582
rclavicle 1.73738e-013 -8.5875e-014
rhumerus -26.4837 -2.14508 -61.0606
rradius 26.1644
rwrist 31.6994
rhand -34.0929 -19.7593
rfingers 7.12502
rthumb -7.26919 -49.6144
lclavicle 1.73738e-013 -8.5875e-014
lhumerus -35.2291 -36.7672 102.781
lradius 43.6113
lwrist -13.749
lhand -46.9065 5.66134
lfingers 7.12502
lthumb -19.6174 34.6916
rfemur -38.6198 -42.0559 11.2191
rtibia 62.9737
rfoot -21.2356 -22.7923
rtoes -6.19581
lfemur -2.85546 18.5649 0.689053
ltibia 52.1964
lfoot -33.0253 5.89207
ltoes -18.1704
180
root 10.9195 14.9885 -4.23134 351.588 -43.7237 5.47187
lowerback 14.5122 -0.540086 4.03212
upperback 6.85851 -0.324829 1.94048
thorax -0.893974 -0.180342 -0.196836
lowerneck -27.5185 -0.948923 -1.92783
upperneck 9.31886 -0.574498 -0.33974
head 7.21697 -0.408718 0.108504
rclavicle 3.69739e-014 1.90833e-014
rhumerus -26.0284 -1.23551 -60.7783
rradius 26.4661
rwrist 32.1874
rhand -33.7459 -19.8053
rfingers 7.12502
rthumb -6.93431 -49.6718
lclavicle 3.69739e-014 1.90833e-014
lhumerus -35.4603 -36.5961 102.673
lradius 43.7284
lwrist -14.1872
lhand -47.3018 6.05982
lfingers 7.12502
lthumb -19.9974 35.0508
rfemur -39.0742 -41.6325 11.0782
rtibia 62.7969
rfoot -21.4038 -21.7672
rtoes -6.09779
lfemur -2.71937 17.6898 0.277704
ltibia 50.8486
lfoot -35.4549 5.9246
ltoes -17.8578
181
root 11.0325 14.9809 -4.16378 352.551 -42.8543 5.05922
lowerback 14.3721 -0.308696 3.40544
upperback 6.74846 -0.0980557 1.66496
thorax -0.933279 -0.0725753 -0.166921
lowerneck -27.2914 -0.715228 -1.57509
upperneck 9.42667 -0.357091 -0.52613
head 7.21725 -0.308755 0.0204889
rclavicle -8.38871e-014 3.18055e-014
rhumerus -25.2895 -0.208696 -60.4803
rradius 26.5986
rwrist 32.2444
rhand -34.084 -19.6966
rfingers 7.12502
rthumb -7.26061 -49.552
lclavicle -8.38871e-014 3.18055e-014
lhumerus -35.3801 -36.0447 102.394
lradius 43.606
lwrist -14.788
lhand -47.8502 6.59581
lfingers 7.12502
lthumb -20.5244 35.5309
rfemur -39.6731 -41.0257 10.9961
rtibia 62.5374
rfoot -21.3341 -21.4181
rtoes -6.48469
lfemur -3.36824 16.9775 -0.200274
ltibia 50.4995
lfoot -37.4664 4.99515
ltoes -17.8542
182
root 11.1317 15.0148 -4.105 353.668 -41.5949 4.59979
lowerback 14.139 -0.199206 2.82697
upperback 6.54576 -0.0212926 1.43494
thorax -1.02476 -0.0386893 -0.0935857
lowerneck -27.0553 -0.692718 -1.64034
upperneck 9.50656 -0.34011 -0.308227
head 7.20916 -0.279009 0.107132
rclavicle -3.18055e-015 -6.36111e-015
rhumerus -24.5883 -0.193244 -60.0192
rradius 26.7469
rwrist 33.3992
rhand -34.1881 -19.8534
rfingers 7.12502
rthumb -7.36114 -49.7053
lclavicle -3.18055e-015 -6.36111e-015
lhumerus -35.248 -35.5158 102.043
lradius 43.3739
lwrist -15.79
lhand -48.0307 7.01438
lfingers 7.12502
lthumb -20.6979 35.9307
rfemur -39.9987 -40.6034 10.9054
rtibia 62.0358
rfoot -21.2935 -21.1013
rtoes -5.62085
lfemur -5.1683 16.7985 -0.6774
ltibia 51.0093
lfoot -37.6389 4.36247
ltoes -17.9848
183
root 11.2253 15.0071 -4.05587 354.702 -40.4439 4.25627
lowerback 13.8973 -0.0559275 2.22163
upperback 6.32718 0.0972651 1.20254
thorax -1.12723 0.0160145 -0.0128845
lowerneck -26.4649 -0.640099 -1.64764
upperneck 9.26003 -0.267182 -0.382188
head 7.03755 -0.248779 0.0951057
rclavicle 4.29375e-014 -1.43125e-014
rhumerus -24.1036 -0.614861 -59.6863
rradius 27.103
rwrist 33.9385
rhand -34.4257 -20.013
rfingers 7.12502
rthumb -7.59051 -49.8568
lclavicle 4.29375e-014 -1.43125e-014
lhumerus -35.3025 -35.0851 101.858
lradius 43.3647
lwrist -16.0909
lhand -48.3535 7.29214
lfingers 7.12502
lthumb -21.0081 36.1743
rfemur -40.4587 -39.7365 10.716
rtibia 61.5061
rfoot -21.0004 -20.9675
rtoes -5.85942
lfemur -7.29799 16.9053 -1.07691
ltibia 52.1001
lfoot -37.2205 3.28712
ltoes -17.3937
184
root 11.3115 15.0166 -4.00609 355.535 -39.452 3.97913
lowerback 13.6741 0.0846536 1.63167
upperback 6.33959 0.203646 0.945801
thorax -0.996962 0.065331 0.0366864
lowerneck -26.4124 -0.419864 -1.47435
upperneck 9.19165 -0.00896625 -0.535254
head 7.00545 -0.132909 0.0507882
rclavicle -8.84592e-014 2.06736e-014
rhumerus -23.4707 -1.64998 -59.5211
rradius 27.639
rwrist 35.0839
rhand -34.7023 -20.6209
rfingers 7.12502
rthumb -7.85747 -50.4549
lclavicle -8.84592e-014 2.06736e-014
lhumerus -34.7331 -34.691 101.319
lradius 43.0343
lwrist -16.0446
lhand -48.6052 6.93525
lfingers 7.12502
lthumb -21.2499 35.7904
rfemur -40.5165 -38.6194 10.348
rtibia 60.7194
rfoot -20.3709 -20.5759
rtoes -5.52389
lfemur -9.14418 17.4924 -1.52326
ltibia 53.208
lfoot -37.1899 2.78436
ltoes -17.4477
185
root 11.3901 15.0364 -3.93589 356.052 -38.8108 3.4394
lowerback 13.4221 0.303245 1.66452
upperback 6.62599 0.477387 0.733558
thorax -0.556432 0.208566 -0.238959
lowerneck -26.6171 -0.476427 -1.72928
upperneck 9.38673 0.0122115 -0.541017
head 7.10159 -0.134687 0.0914535
rclavicle -2.46493e-014 -4.77083e-015
rhumerus -22.9604 -2.54876 -59.4284
rradius 28.2825
rwrist 35.0238
rhand -35.3083 -21.9781
rfingers 7.12502
rthumb -8.44229 -51.7894
lclavicle -2.46493e-014 -4.77083e-015
lhumerus -34.0087 -34.461 100.917
lradius 42.5953
lwrist -16.0339
lhand -48.6222 7.98952
lfingers 7.12502
lthumb -21.2662 36.8428
rfemur -39.857 -37.3948 9.89194
rtibia 59.7744
rfoot -19.4598 -19.5617
rtoes -5.55157
lfemur -9.88083 17.9793 -1.51749
ltibia 53.9039
lfoot -37.6964 1.97037
ltoes -17.1957
186
root 11.4652 15.0771 -3.87537 356.552 -37.9 2.34937
lowerback 13.6389 0.369689 2.04686
upperback 6.92898 0.603287 0.730065
thorax -0.345966 0.280738 -0.474751
lowerneck -26.6665 -0.478015 -1.90702
upperneck 9.52201 0.117869 -0.796925
head 7.1546 -0.118486 0.0476204
rclavicle 8.34896e-015 8.74653e-015
rhumerus -22.4681 -2.91506 -59.6346
rradius 29.0041
rwrist 34.0385
rhand -35.5756 -23.6856
rfingers 7.12502
rthumb -8.7003 -53.4863
lclavicle 8.34896e-015 8.74653e-015
lhumerus -33.4329 -34.434 100.718
lradius 42.3559
lwrist -14.7865
lhand -48.7382 8.38763
lfingers 7.12502
lthumb -21.3776 37.2283
rfemur -38.4428 -36.2232 9.6081
rtibia 58.6068
rfoot -18.7168 -18.7483
rtoes -5.37493
lfemur -10.0749 18.0185 -0.922514
ltibia 54.1496
lfoot -38.13 1.19119
ltoes -17.1069
187
root 11.5379 15.1152 -3.80615 356.901 -37.0716 1.04645
lowerback 14.0443 0.389841 2.81461
upperback 7.27468 0.717234 0.73491
thorax -0.180713 0.357137 -0.918467
lowerneck -26.8588 -0.44823 -2.02834
upperneck 9.88593 0.265931 -1.11434
head 7.30664 -0.0893972 -0.0206559
rclavicle -7.41467e-014 9.93923e-015
rhumerus -22.1442 -3.09271 -60.1875
rradius 29.8127
rwrist 32.5342
rhand -35.8853 -25.629
rfingers 7.12502
rthumb -8.99912 -55.417
lclavicle -7.41467e-014 9.93923e-015
lhumerus -32.858 -34.279 100.399
lradius 41.8142
lwrist -14.4695
lhand -48.9245 8.58543
lfingers 7.12502
lthumb -21.5565 37.4057
rfemur -36.5737 -34.9015 9.36554
rtibia 57.3624
rfoot -18.3649 -18.3328
rtoes -5.29965
lfemur -9.72026 18.0505 0.0901964
ltibia 53.9905
lfoot -38.3502 -0.169547
ltoes -16.6494
